<svg width="1920" height="1080" viewBox="0 0 1920 1080" xmlns="http://www.w3.org/2000/svg" font-family="'Segoe UI', 'Inter', Arial, sans-serif">
  <defs>

    <!-- Background gradient -->
    <linearGradient id="bg" x1="0" y1="0" x2="1" y2="1" gradientUnits="objectBoundingBox">
      <stop offset="0%"   stop-color="#080c14"/>
      <stop offset="100%" stop-color="#0d1320"/>
    </linearGradient>

    <!-- Stage fills -->
    <linearGradient id="fill-prism" x1="0" y1="0" x2="0" y2="1">
      <stop offset="0%"   stop-color="#061830"/>
      <stop offset="100%" stop-color="#020c1c"/>
    </linearGradient>
    <linearGradient id="fill-actions" x1="0" y1="0" x2="0" y2="1">
      <stop offset="0%"   stop-color="#1c1000"/>
      <stop offset="100%" stop-color="#0e0800"/>
    </linearGradient>
    <linearGradient id="fill-exec" x1="0" y1="0" x2="0" y2="1">
      <stop offset="0%"   stop-color="#041a08"/>
      <stop offset="100%" stop-color="#020e04"/>
    </linearGradient>

    <!-- Node chip fills -->
    <linearGradient id="chip-prism" x1="0" y1="0" x2="0" y2="1">
      <stop offset="0%"   stop-color="#0d2a50"/>
      <stop offset="100%" stop-color="#061830"/>
    </linearGradient>
    <linearGradient id="chip-action" x1="0" y1="0" x2="0" y2="1">
      <stop offset="0%"   stop-color="#2a1800"/>
      <stop offset="100%" stop-color="#180e00"/>
    </linearGradient>
    <linearGradient id="chip-exec" x1="0" y1="0" x2="0" y2="1">
      <stop offset="0%"   stop-color="#082810"/>
      <stop offset="100%" stop-color="#041608"/>
    </linearGradient>
    <linearGradient id="chip-result" x1="0" y1="0" x2="0" y2="1">
      <stop offset="0%"   stop-color="#001e2c"/>
      <stop offset="100%" stop-color="#001016"/>
    </linearGradient>

    <!-- Subprocess box -->
    <linearGradient id="fill-mayapy" x1="0" y1="0" x2="0" y2="1">
      <stop offset="0%"   stop-color="#140828"/>
      <stop offset="100%" stop-color="#0a0418"/>
    </linearGradient>

    <!-- Glow filters -->
    <filter id="glow-blue" x="-20%" y="-20%" width="140%" height="140%">
      <feGaussianBlur stdDeviation="6" result="blur"/>
      <feMerge><feMergeNode in="blur"/><feMergeNode in="SourceGraphic"/></feMerge>
    </filter>
    <filter id="glow-amber" x="-20%" y="-20%" width="140%" height="140%">
      <feGaussianBlur stdDeviation="6" result="blur"/>
      <feMerge><feMergeNode in="blur"/><feMergeNode in="SourceGraphic"/></feMerge>
    </filter>
    <filter id="glow-green" x="-20%" y="-20%" width="140%" height="140%">
      <feGaussianBlur stdDeviation="8" result="blur"/>
      <feMerge><feMergeNode in="blur"/><feMergeNode in="SourceGraphic"/></feMerge>
    </filter>
    <filter id="glow-soft" x="-30%" y="-30%" width="160%" height="160%">
      <feGaussianBlur stdDeviation="12" result="blur"/>
      <feMerge><feMergeNode in="blur"/><feMergeNode in="SourceGraphic"/></feMerge>
    </filter>

    <!-- Arrow marker — blue -->
    <marker id="arr-blue" markerWidth="10" markerHeight="7" refX="9" refY="3.5" orient="auto">
      <polygon points="0 0, 10 3.5, 0 7" fill="#3b9eff"/>
    </marker>
    <!-- Arrow marker — amber -->
    <marker id="arr-amber" markerWidth="10" markerHeight="7" refX="9" refY="3.5" orient="auto">
      <polygon points="0 0, 10 3.5, 0 7" fill="#ffb03a"/>
    </marker>
    <!-- Arrow marker — green -->
    <marker id="arr-green" markerWidth="10" markerHeight="7" refX="9" refY="3.5" orient="auto">
      <polygon points="0 0, 10 3.5, 0 7" fill="#3ddc68"/>
    </marker>
    <!-- Arrow marker — cyan -->
    <marker id="arr-cyan" markerWidth="10" markerHeight="7" refX="9" refY="3.5" orient="auto">
      <polygon points="0 0, 10 3.5, 0 7" fill="#38e8d8"/>
    </marker>
    <!-- Arrow marker — purple (dashed return) -->
    <marker id="arr-purple" markerWidth="10" markerHeight="7" refX="9" refY="3.5" orient="auto">
      <polygon points="0 0, 10 3.5, 0 7" fill="#b06cff"/>
    </marker>

    <!-- Dot grid pattern -->
    <pattern id="dots" width="40" height="40" patternUnits="userSpaceOnUse">
      <circle cx="20" cy="20" r="1" fill="#1e2840" opacity="0.6"/>
    </pattern>

  </defs>

  <!-- ═══════════════════════════════════════════════
       BACKGROUND
  ════════════════════════════════════════════════ -->
  <rect width="1920" height="1080" fill="url(#bg)"/>
  <rect width="1920" height="1080" fill="url(#dots)"/>

  <!-- Subtle top vignette line -->
  <rect x="0" y="0" width="1920" height="4" fill="#3b9eff" opacity="0.25"/>

  <!-- ═══════════════════════════════════════════════
       TITLE AREA
  ════════════════════════════════════════════════ -->
  <text x="960" y="62" text-anchor="middle" font-size="30" font-weight="700" fill="#e8eef8" letter-spacing="1">
    Maya Headless Automation — Build a Full Prism + Maya Pipeline in One Graph
  </text>
  <text x="960" y="94" text-anchor="middle" font-size="17" fill="#5a7aaa" letter-spacing="2">
    THREE-STAGE PIPELINE ARCHITECTURE
  </text>
  <!-- Divider -->
  <line x1="200" y1="110" x2="1720" y2="110" stroke="#1e3060" stroke-width="1"/>

  <!-- ═══════════════════════════════════════════════
       STAGE BADGES (top labels)
  ════════════════════════════════════════════════ -->

  <!-- Stage 1 badge -->
  <rect x="148" y="122" width="520" height="34" rx="6" fill="#0d2448" stroke="#3b9eff" stroke-width="1.5" opacity="0.9"/>
  <circle cx="176" cy="139" r="11" fill="#3b9eff" filter="url(#glow-blue)"/>
  <text x="176" y="144" text-anchor="middle" font-size="13" font-weight="700" fill="#ffffff">1</text>
  <text x="410" y="144" text-anchor="middle" font-size="14" font-weight="700" fill="#3b9eff" letter-spacing="2">PRISM PIPELINE  —  DATA LAYER</text>

  <!-- Stage 2 badge -->
  <rect x="700" y="122" width="520" height="34" rx="6" fill="#241400" stroke="#ffb03a" stroke-width="1.5" opacity="0.9"/>
  <circle cx="728" cy="139" r="11" fill="#ffb03a" filter="url(#glow-amber)"/>
  <text x="728" y="144" text-anchor="middle" font-size="13" font-weight="700" fill="#ffffff">2</text>
  <text x="960" y="144" text-anchor="middle" font-size="14" font-weight="700" fill="#ffb03a" letter-spacing="2">MAYA ACTION BUILDER</text>

  <!-- Stage 3 badge -->
  <rect x="1252" y="122" width="520" height="34" rx="6" fill="#041a08" stroke="#3ddc68" stroke-width="1.5" opacity="0.9"/>
  <circle cx="1280" cy="139" r="11" fill="#3ddc68" filter="url(#glow-green)"/>
  <text x="1280" y="144" text-anchor="middle" font-size="13" font-weight="700" fill="#ffffff">3</text>
  <text x="1512" y="144" text-anchor="middle" font-size="14" font-weight="700" fill="#3ddc68" letter-spacing="2">HEADLESS EXECUTION  +  RESULTS</text>

  <!-- ═══════════════════════════════════════════════
       STAGE 1 — PRISM PIPELINE (blue)  x=148 y=168 w=520 h=760
  ════════════════════════════════════════════════ -->
  <rect x="148" y="168" width="520" height="760" rx="14" fill="url(#fill-prism)" stroke="#3b9eff" stroke-width="2" opacity="0.95"/>
  <!-- inner glow top edge -->
  <rect x="148" y="168" width="520" height="6" rx="14" fill="#3b9eff" opacity="0.18"/>

  <!-- prism_core_init -->
  <rect x="178" y="196" width="460" height="58" rx="8" fill="url(#chip-prism)" stroke="#3b9eff" stroke-width="1.2" opacity="0.9"/>
  <rect x="178" y="196" width="8" height="58" rx="4" fill="#3b9eff"/>
  <text x="204" y="221" font-size="13" font-weight="700" fill="#3b9eff">prism_core_init</text>
  <text x="204" y="240" font-size="11" fill="#6a90c0">Initialises PrismCore — shared across all nodes</text>
  <!-- dot port right -->
  <circle cx="630" cy="225" r="5" fill="#3b9eff" opacity="0.8"/>

  <!-- prism_get_project_by_name -->
  <rect x="178" y="270" width="460" height="58" rx="8" fill="url(#chip-prism)" stroke="#3b9eff" stroke-width="1.2" opacity="0.9"/>
  <rect x="178" y="270" width="8" height="58" rx="4" fill="#3b9eff"/>
  <text x="204" y="295" font-size="13" font-weight="700" fill="#3b9eff">prism_get_project_by_name</text>
  <text x="204" y="314" font-size="11" fill="#6a90c0">name: "splash"  →  project { path, name, … }</text>
  <circle cx="630" cy="299" r="5" fill="#3b9eff" opacity="0.8"/>

  <!-- prism_get_asset_types_by_project -->
  <rect x="178" y="344" width="460" height="58" rx="8" fill="url(#chip-prism)" stroke="#3b9eff" stroke-width="1.2" opacity="0.9"/>
  <rect x="178" y="344" width="8" height="58" rx="4" fill="#3b9eff"/>
  <text x="204" y="369" font-size="13" font-weight="700" fill="#3b9eff">prism_get_asset_types_by_project</text>
  <text x="204" y="388" font-size="11" fill="#6a90c0">project  →  asset_types [ chars, props, envs… ]</text>
  <circle cx="630" cy="373" r="5" fill="#3b9eff" opacity="0.8"/>

  <!-- prism_get_asset_type_by_name -->
  <rect x="178" y="418" width="460" height="58" rx="8" fill="url(#chip-prism)" stroke="#3b9eff" stroke-width="1.2" opacity="0.9"/>
  <rect x="178" y="418" width="8" height="58" rx="4" fill="#3b9eff"/>
  <text x="204" y="443" font-size="13" font-weight="700" fill="#3b9eff">prism_get_asset_type_by_name</text>
  <text x="204" y="462" font-size="11" fill="#6a90c0">name: "chars"  →  asset_type { name, path }</text>
  <circle cx="630" cy="447" r="5" fill="#3b9eff" opacity="0.8"/>

  <!-- prism_get_asset_by_name -->
  <rect x="178" y="492" width="460" height="58" rx="8" fill="url(#chip-prism)" stroke="#3b9eff" stroke-width="1.2" opacity="0.9"/>
  <rect x="178" y="492" width="8" height="58" rx="4" fill="#3b9eff"/>
  <text x="204" y="517" font-size="13" font-weight="700" fill="#3b9eff">prism_get_asset_by_name</text>
  <text x="204" y="536" font-size="11" fill="#6a90c0">name: "dog"  →  asset { asset_path } + entity { path }</text>
  <circle cx="630" cy="521" r="5" fill="#3b9eff" opacity="0.8"/>

  <!-- prism_get_scene_path -->
  <rect x="178" y="566" width="460" height="58" rx="8" fill="url(#chip-prism)" stroke="#3b9eff" stroke-width="1.2" opacity="0.9"/>
  <rect x="178" y="566" width="8" height="58" rx="4" fill="#3b9eff"/>
  <text x="204" y="591" font-size="13" font-weight="700" fill="#3b9eff">prism_get_scene_path</text>
  <text x="204" y="610" font-size="11" fill="#6a90c0">entity + dept + task  →  scene_path (.ma file)</text>
  <circle cx="630" cy="595" r="5" fill="#3b9eff" opacity="0.8"/>

  <!-- prism_save_scene_version -->
  <rect x="178" y="640" width="460" height="58" rx="8" fill="url(#chip-prism)" stroke="#3b9eff" stroke-width="1.2" opacity="0.9"/>
  <rect x="178" y="640" width="8" height="58" rx="4" fill="#3b9eff"/>
  <text x="204" y="665" font-size="13" font-weight="700" fill="#3b9eff">prism_save_scene_version</text>
  <text x="204" y="684" font-size="11" fill="#6a90c0">entity + dept + task + app  →  saved_path  v0007</text>
  <circle cx="630" cy="669" r="5" fill="#3b9eff" opacity="0.8"/>

  <!-- Output summary box -->
  <rect x="178" y="722" width="460" height="180" rx="8" fill="#040e20" stroke="#1e3a6a" stroke-width="1" stroke-dasharray="6 3"/>
  <text x="408" y="746" text-anchor="middle" font-size="11" font-weight="700" fill="#5a7aaa" letter-spacing="2">OUTPUTS TO STAGE 2</text>
  <line x1="192" y1="752" x2="624" y2="752" stroke="#1e3a6a" stroke-width="1"/>

  <circle cx="202" cy="772" r="4" fill="#3b9eff" opacity="0.7"/>
  <text x="214" y="777" font-size="12" fill="#8ab4e0">entity</text>
  <text x="290" y="777" font-size="11" fill="#4a6080">→  { type, asset_path, path }</text>

  <circle cx="202" cy="800" r="4" fill="#3b9eff" opacity="0.7"/>
  <text x="214" y="805" font-size="12" fill="#8ab4e0">scene_path</text>
  <text x="310" y="805" font-size="11" fill="#4a6080">→  .../dog_modeling_v0007.ma</text>

  <circle cx="202" cy="828" r="4" fill="#3b9eff" opacity="0.7"/>
  <text x="214" y="833" font-size="12" fill="#8ab4e0">saved_path</text>
  <text x="312" y="833" font-size="11" fill="#4a6080">→  .../dog_modeling_v0008.ma</text>

  <circle cx="202" cy="856" r="4" fill="#3b9eff" opacity="0.7"/>
  <text x="214" y="861" font-size="12" fill="#8ab4e0">version</text>
  <text x="272" y="861" font-size="11" fill="#4a6080">→  v0008</text>

  <circle cx="202" cy="884" r="4" fill="#38e8d8" opacity="0.7"/>
  <text x="214" y="889" font-size="12" fill="#5ad8c8">exec chain</text>
  <text x="296" y="889" font-size="11" fill="#4a6080">→  triggers next stage</text>

  <!-- ═══════════════════════════════════════════════
       STAGE 1 → 2 ARROW
  ════════════════════════════════════════════════ -->
  <!-- Main thick arrow -->
  <line x1="670" y1="548" x2="696" y2="548" stroke="#3b9eff" stroke-width="3" marker-end="url(#arr-blue)" opacity="0.9"/>
  <!-- data label -->
  <text x="683" y="540" text-anchor="middle" font-size="10" fill="#3b9eff" opacity="0.8">data</text>

  <!-- exec arrow (slightly below) -->
  <line x1="670" y1="580" x2="696" y2="580" stroke="#38e8d8" stroke-width="2" stroke-dasharray="4 2" marker-end="url(#arr-cyan)" opacity="0.7"/>
  <text x="683" y="600" text-anchor="middle" font-size="10" fill="#38e8d8" opacity="0.7">exec</text>

  <!-- ═══════════════════════════════════════════════
       STAGE 2 — MAYA ACTION BUILDER (amber)  x=700 y=168 w=520 h=760
  ════════════════════════════════════════════════ -->
  <rect x="700" y="168" width="520" height="760" rx="14" fill="url(#fill-actions)" stroke="#ffb03a" stroke-width="2" opacity="0.95"/>
  <rect x="700" y="168" width="520" height="6" rx="14" fill="#ffb03a" opacity="0.18"/>

  <!-- Concept label -->
  <rect x="730" y="192" width="460" height="38" rx="6" fill="#1a1000" stroke="#5a3c00" stroke-width="1"/>
  <text x="960" y="208" text-anchor="middle" font-size="11" fill="#7a5a20">ACTION NODES  —  build a list of instructions.  Nothing runs yet.</text>
  <text x="960" y="224" text-anchor="middle" font-size="11" fill="#7a5a20">Each node appends one dict to the  actions[ ]  list.</text>

  <!-- maya_action_open_scene -->
  <rect x="730" y="246" width="460" height="66" rx="8" fill="url(#chip-action)" stroke="#ffb03a" stroke-width="1.2" opacity="0.9"/>
  <rect x="730" y="246" width="8" height="66" rx="4" fill="#ffb03a"/>
  <text x="756" y="272" font-size="13" font-weight="700" fill="#ffb03a">maya_action_open_scene</text>
  <text x="756" y="291" font-size="11" fill="#9a7040">scene_path  →  { type: "open_scene", scene_path: "…" }</text>
  <text x="756" y="306" font-size="10" fill="#6a5030">appends to  actions_out</text>
  <!-- port left -->
  <circle cx="730" cy="279" r="5" fill="#ffb03a" opacity="0.7"/>
  <!-- port right -->
  <circle cx="1182" cy="279" r="5" fill="#ffb03a" opacity="0.7"/>

  <!-- mini action dict preview -->
  <rect x="730" y="328" width="460" height="36" rx="4" fill="#0e0800" stroke="#3a2800" stroke-width="1"/>
  <text x="752" y="352" font-size="11" fill="#6a5030" font-family="'Consolas','Courier New',monospace">{ "type": "open_scene",  "scene_path": "/…/dog_modeling_v0007.ma" }</text>

  <!-- maya_action_scene_info -->
  <rect x="730" y="378" width="460" height="66" rx="8" fill="url(#chip-action)" stroke="#ffb03a" stroke-width="1.2" opacity="0.9"/>
  <rect x="730" y="378" width="8" height="66" rx="4" fill="#ffb03a"/>
  <text x="756" y="404" font-size="13" font-weight="700" fill="#ffb03a">maya_action_scene_info</text>
  <text x="756" y="423" font-size="11" fill="#9a7040">queries scene metadata — name, poly count, frame range</text>
  <text x="756" y="438" font-size="10" fill="#6a5030">appends to  actions_out</text>
  <circle cx="730" cy="411" r="5" fill="#ffb03a" opacity="0.7"/>
  <circle cx="1182" cy="411" r="5" fill="#ffb03a" opacity="0.7"/>

  <rect x="730" y="458" width="460" height="36" rx="4" fill="#0e0800" stroke="#3a2800" stroke-width="1"/>
  <text x="752" y="482" font-size="11" fill="#6a5030" font-family="'Consolas','Courier New',monospace">{ "type": "scene_info" }</text>

  <!-- maya_action_save_scene -->
  <rect x="730" y="508" width="460" height="66" rx="8" fill="url(#chip-action)" stroke="#ffb03a" stroke-width="1.2" opacity="0.9"/>
  <rect x="730" y="508" width="8" height="66" rx="4" fill="#ffb03a"/>
  <text x="756" y="534" font-size="13" font-weight="700" fill="#ffb03a">maya_action_save_scene</text>
  <text x="756" y="553" font-size="11" fill="#9a7040">saved_path (from prism_save_scene_version)  →  save file</text>
  <text x="756" y="568" font-size="10" fill="#6a5030">appends to  actions_out</text>
  <circle cx="730" cy="541" r="5" fill="#ffb03a" opacity="0.7"/>
  <circle cx="1182" cy="541" r="5" fill="#ffb03a" opacity="0.7"/>

  <rect x="730" y="588" width="460" height="36" rx="4" fill="#0e0800" stroke="#3a2800" stroke-width="1"/>
  <text x="752" y="612" font-size="11" fill="#6a5030" font-family="'Consolas','Courier New',monospace">{ "type": "save_scene",  "path": "/…/dog_modeling_v0008.ma" }</text>

  <!-- Actions list visual -->
  <rect x="730" y="642" width="460" height="200" rx="8" fill="#080600" stroke="#3a2800" stroke-width="1" stroke-dasharray="6 3"/>
  <text x="960" y="666" text-anchor="middle" font-size="11" font-weight="700" fill="#7a5a20" letter-spacing="2">ASSEMBLED  actions[ ]  LIST</text>
  <line x1="744" y1="672" x2="1176" y2="672" stroke="#3a2800" stroke-width="1"/>

  <text x="752" y="695" font-size="12" fill="#aa8040" font-family="'Consolas','Courier New',monospace">actions[0]  →  open_scene</text>
  <text x="752" y="717" font-size="12" fill="#aa8040" font-family="'Consolas','Courier New',monospace">actions[1]  →  scene_info</text>
  <text x="752" y="739" font-size="12" fill="#aa8040" font-family="'Consolas','Courier New',monospace">actions[2]  →  save_scene</text>
  <text x="752" y="768" font-size="11" fill="#5a4020">⚡  Nothing has executed yet.  This is a pure data list.</text>
  <text x="752" y="787" font-size="11" fill="#5a4020">    maya_headless fires it all at once in Stage 3.</text>

  <text x="960" y="822" text-anchor="middle" font-size="11" font-weight="700" fill="#5a7aaa" letter-spacing="2">OUTPUTS TO STAGE 3</text>
  <line x1="744" y1="828" x2="1176" y2="828" stroke="#1e3a6a" stroke-width="1"/>
  <circle cx="752" cy="848" r="4" fill="#ffb03a" opacity="0.7"/>
  <text x="764" y="853" font-size="12" fill="#c08840">actions_out</text>
  <text x="856" y="853" font-size="11" fill="#4a6080">→  list of 3 action dicts</text>

  <!-- ═══════════════════════════════════════════════
       STAGE 2 → 3 ARROW
  ════════════════════════════════════════════════ -->
  <line x1="1222" y1="548" x2="1248" y2="548" stroke="#ffb03a" stroke-width="3" marker-end="url(#arr-amber)" opacity="0.9"/>
  <text x="1235" y="540" text-anchor="middle" font-size="10" fill="#ffb03a" opacity="0.8">actions[]</text>
  <line x1="1222" y1="580" x2="1248" y2="580" stroke="#38e8d8" stroke-width="2" stroke-dasharray="4 2" marker-end="url(#arr-cyan)" opacity="0.7"/>
  <text x="1235" y="600" text-anchor="middle" font-size="10" fill="#38e8d8" opacity="0.7">exec</text>

  <!-- ═══════════════════════════════════════════════
       STAGE 3 — HEADLESS EXECUTION + RESULTS (green)  x=1252 y=168 w=520 h=760
  ════════════════════════════════════════════════ -->
  <rect x="1252" y="168" width="520" height="760" rx="14" fill="url(#fill-exec)" stroke="#3ddc68" stroke-width="2" opacity="0.95"/>
  <rect x="1252" y="168" width="520" height="6" rx="14" fill="#3ddc68" opacity="0.18"/>

  <!-- maya_headless node -->
  <rect x="1282" y="196" width="460" height="90" rx="8" fill="url(#chip-exec)" stroke="#3ddc68" stroke-width="1.8" filter="url(#glow-green)" opacity="0.97"/>
  <rect x="1282" y="196" width="8" height="90" rx="4" fill="#3ddc68"/>
  <text x="1308" y="222" font-size="14" font-weight="700" fill="#3ddc68">maya_headless</text>
  <text x="1308" y="243" font-size="11" fill="#50a070">Receives actions[ ]  →  serialises to JSON</text>
  <text x="1308" y="260" font-size="11" fill="#50a070">→  spawns  mayapy  subprocess</text>
  <text x="1308" y="277" font-size="11" fill="#50a070">→  executes ALL actions in one session</text>
  <circle cx="1282" cy="241" r="5" fill="#3ddc68" opacity="0.8"/>
  <circle cx="1734" cy="241" r="5" fill="#3ddc68" opacity="0.8"/>

  <!-- mayapy subprocess box -->
  <rect x="1282" y="304" width="460" height="140" rx="8" fill="url(#fill-mayapy)" stroke="#8855cc" stroke-width="1.5" stroke-dasharray="7 3"/>
  <text x="1512" y="326" text-anchor="middle" font-size="12" font-weight="700" fill="#8855cc" letter-spacing="2">mayapy  SUBPROCESS</text>
  <line x1="1296" y1="332" x2="1728" y2="332" stroke="#3a2460" stroke-width="1"/>

  <text x="1300" y="355" font-size="11" fill="#6a44aa" font-family="'Consolas','Courier New',monospace">$ mayapy runner.py --actions actions.json</text>
  <text x="1300" y="377" font-size="11" fill="#6a44aa" font-family="'Consolas','Courier New',monospace">[0] open_scene    ✓</text>
  <text x="1300" y="396" font-size="11" fill="#6a44aa" font-family="'Consolas','Courier New',monospace">[1] scene_info    ✓  { name, polys, range }</text>
  <text x="1300" y="415" font-size="11" fill="#6a44aa" font-family="'Consolas','Courier New',monospace">[2] save_scene    ✓  dog_modeling_v0008.ma</text>
  <text x="1300" y="434" font-size="11" fill="#4a2880" font-family="'Consolas','Courier New',monospace">→  stdout: JSON results array</text>

  <!-- Down arrow maya_headless → mayapy -->
  <line x1="1512" y1="288" x2="1512" y2="300" stroke="#3ddc68" stroke-width="2" marker-end="url(#arr-green)" opacity="0.8"/>

  <!-- maya_get_action_result -->
  <rect x="1282" y="462" width="460" height="66" rx="8" fill="url(#chip-exec)" stroke="#3ddc68" stroke-width="1.2" opacity="0.9"/>
  <rect x="1282" y="462" width="8" height="66" rx="4" fill="#3ddc68"/>
  <text x="1308" y="488" font-size="13" font-weight="700" fill="#3ddc68">maya_get_action_result</text>
  <text x="1308" y="507" font-size="11" fill="#50a070">index: 1  (scene_info)  →  extracts result dict</text>
  <text x="1308" y="522" font-size="10" fill="#306050">reads from  executed_actions  output of maya_headless</text>
  <circle cx="1282" cy="495" r="5" fill="#3ddc68" opacity="0.8"/>
  <circle cx="1734" cy="495" r="5" fill="#3ddc68" opacity="0.8"/>

  <!-- console_print -->
  <rect x="1282" y="546" width="460" height="58" rx="8" fill="url(#chip-result)" stroke="#38e8d8" stroke-width="1.2" opacity="0.9"/>
  <rect x="1282" y="546" width="8" height="58" rx="4" fill="#38e8d8"/>
  <text x="1308" y="571" font-size="13" font-weight="700" fill="#38e8d8">console_print</text>
  <text x="1308" y="590" font-size="11" fill="#3a8880">data: result  →  prints to node log panel</text>
  <circle cx="1282" cy="575" r="5" fill="#38e8d8" opacity="0.8"/>

  <!-- Down arrows inside stage 3 -->
  <line x1="1512" y1="444" x2="1512" y2="458" stroke="#3ddc68" stroke-width="1.5" marker-end="url(#arr-green)" opacity="0.7"/>
  <line x1="1512" y1="530" x2="1512" y2="542" stroke="#3ddc68" stroke-width="1.5" marker-end="url(#arr-green)" opacity="0.7"/>

  <!-- Results summary box -->
  <rect x="1282" y="622" width="460" height="276" rx="8" fill="#020c04" stroke="#1a4028" stroke-width="1" stroke-dasharray="6 3"/>
  <text x="1512" y="646" text-anchor="middle" font-size="11" font-weight="700" fill="#2a7050" letter-spacing="2">PIPELINE RESULTS</text>
  <line x1="1296" y1="652" x2="1728" y2="652" stroke="#1a4028" stroke-width="1"/>

  <circle cx="1300" cy="674" r="4" fill="#3ddc68" opacity="0.7"/>
  <text x="1312" y="679" font-size="12" fill="#50a878">success</text>
  <text x="1388" y="679" font-size="11" fill="#4a6060">→  True / False per action</text>

  <circle cx="1300" cy="702" r="4" fill="#3ddc68" opacity="0.7"/>
  <text x="1312" y="707" font-size="12" fill="#50a878">executed_actions</text>
  <text x="1460" y="707" font-size="11" fill="#4a6060">→  full results list</text>

  <circle cx="1300" cy="730" r="4" fill="#38e8d8" opacity="0.7"/>
  <text x="1312" y="735" font-size="12" fill="#38c8b8">scene_info result</text>
  <text x="1464" y="735" font-size="11" fill="#4a6060">→  { name, polys, … }</text>

  <circle cx="1300" cy="758" r="4" fill="#38e8d8" opacity="0.7"/>
  <text x="1312" y="763" font-size="12" fill="#38c8b8">saved file on disk</text>
  <text x="1466" y="763" font-size="11" fill="#4a6060">→  dog_modeling_v0008.ma</text>

  <!-- Dashed return arrow (results back to Prism label) -->
  <path d="M 1282 860 C 1180 860 1180 920 960 940 C 740 960 740 900 668 900"
        stroke="#b06cff" stroke-width="1.5" stroke-dasharray="8 4" fill="none" marker-end="url(#arr-purple)" opacity="0.5"/>
  <text x="960" y="978" text-anchor="middle" font-size="11" fill="#b06cff" opacity="0.6">Prism registers v0008 — ready for next pipeline run</text>

  <!-- ═══════════════════════════════════════════════
       BOTTOM FOOTER
  ════════════════════════════════════════════════ -->
  <line x1="200" y1="942" x2="1720" y2="942" stroke="#1e3060" stroke-width="1"/>

  <!-- Stage flow summary strip -->
  <rect x="200" y="952" width="1520" height="48" rx="8" fill="#080c18" stroke="#1e2840" stroke-width="1"/>

  <text x="408" y="970" text-anchor="middle" font-size="12" font-weight="700" fill="#3b9eff">① Prism</text>
  <text x="408" y="988" text-anchor="middle" font-size="11" fill="#3a5a80">Resolve paths &amp; versions</text>

  <text x="640" y="970" font-size="14" fill="#2a4060">▶</text>

  <text x="750" y="970" text-anchor="middle" font-size="12" font-weight="700" fill="#ffb03a">scene_path</text>
  <text x="750" y="988" text-anchor="middle" font-size="11" fill="#6a5030">+ saved_path  + entity</text>

  <text x="870" y="970" font-size="14" fill="#2a4060">▶</text>

  <text x="960" y="970" text-anchor="middle" font-size="12" font-weight="700" fill="#ffb03a">② Actions</text>
  <text x="960" y="988" text-anchor="middle" font-size="11" fill="#7a5a20">Build instruction list</text>

  <text x="1080" y="970" font-size="14" fill="#2a4060">▶</text>

  <text x="1176" y="970" text-anchor="middle" font-size="12" font-weight="700" fill="#ffb03a">actions[ ]</text>
  <text x="1176" y="988" text-anchor="middle" font-size="11" fill="#6a5030">3 action dicts</text>

  <text x="1290" y="970" font-size="14" fill="#2a4060">▶</text>

  <text x="1512" y="970" text-anchor="middle" font-size="12" font-weight="700" fill="#3ddc68">③ Headless Exec</text>
  <text x="1512" y="988" text-anchor="middle" font-size="11" fill="#307050">mayapy runs, results return</text>

  <!-- Vibrante-Node watermark -->
  <text x="1700" y="990" text-anchor="end" font-size="11" fill="#2a3850" letter-spacing="1">Vibrante-Node  •  Prism + Maya Pipeline</text>

</svg>
